<mxfile host="app.diagrams.net" agent="Mozilla/5.0 (X11; Linux x86_64) AppleWebKit/537.36 (KHTML, like Gecko) Chrome/131.0.0.0 Safari/537.36" version="25.0.3">
  <diagram id="6a731a19-8d31-9384-78a2-239565b7b9f0" name="Page-1">
    <mxGraphModel dx="1674" dy="786" grid="1" gridSize="10" guides="1" tooltips="1" connect="1" arrows="1" fold="1" page="1" pageScale="1" pageWidth="1169" pageHeight="827" background="none" math="0" shadow="0">
      <root>
        <mxCell id="0" />
        <mxCell id="1" parent="0" />
        <mxCell id="2" value="start" style="shape=mxgraph.flowchart.terminator;strokeWidth=2;gradientColor=none;gradientDirection=north;fontStyle=0;html=1;" parent="1" vertex="1">
          <mxGeometry x="260.5" y="50" width="120" height="30" as="geometry" />
        </mxCell>
        <mxCell id="3" value="Read from sensors" style="shape=mxgraph.flowchart.data;strokeWidth=2;gradientColor=none;gradientDirection=north;fontStyle=0;html=1;" parent="1" vertex="1">
          <mxGeometry x="240.5" y="130" width="159" height="80" as="geometry" />
        </mxCell>
        <mxCell id="cduZeSpl5FfY2fh3-kXK-71" style="edgeStyle=orthogonalEdgeStyle;rounded=0;orthogonalLoop=1;jettySize=auto;html=1;exitX=1;exitY=0.5;exitDx=0;exitDy=0;exitPerimeter=0;entryX=0.5;entryY=0;entryDx=0;entryDy=0;" edge="1" parent="1" source="6" target="cduZeSpl5FfY2fh3-kXK-62">
          <mxGeometry relative="1" as="geometry" />
        </mxCell>
        <mxCell id="cduZeSpl5FfY2fh3-kXK-76" style="edgeStyle=orthogonalEdgeStyle;rounded=0;orthogonalLoop=1;jettySize=auto;html=1;exitX=0.5;exitY=1;exitDx=0;exitDy=0;exitPerimeter=0;entryX=0.5;entryY=0;entryDx=0;entryDy=0;" edge="1" parent="1" source="6" target="cduZeSpl5FfY2fh3-kXK-57">
          <mxGeometry relative="1" as="geometry">
            <mxPoint x="320" y="700" as="targetPoint" />
          </mxGeometry>
        </mxCell>
        <mxCell id="6" value="obscurities?" style="shape=mxgraph.flowchart.decision;strokeWidth=2;gradientColor=none;gradientDirection=north;fontStyle=0;html=1;" parent="1" vertex="1">
          <mxGeometry x="240" y="400" width="160" height="100" as="geometry" />
        </mxCell>
        <mxCell id="7" style="fontStyle=1;strokeColor=#003366;strokeWidth=1;html=1;" parent="1" source="2" target="3" edge="1">
          <mxGeometry relative="1" as="geometry" />
        </mxCell>
        <mxCell id="8" style="fontStyle=1;strokeColor=#003366;strokeWidth=1;html=1;entryX=0.5;entryY=0;entryDx=0;entryDy=0;" parent="1" source="3" target="cduZeSpl5FfY2fh3-kXK-55" edge="1">
          <mxGeometry relative="1" as="geometry">
            <mxPoint x="319" y="250" as="targetPoint" />
          </mxGeometry>
        </mxCell>
        <mxCell id="cduZeSpl5FfY2fh3-kXK-55" value="Analyse the data" style="rounded=0;whiteSpace=wrap;html=1;" vertex="1" parent="1">
          <mxGeometry x="240" y="240" width="160" height="100" as="geometry" />
        </mxCell>
        <mxCell id="cduZeSpl5FfY2fh3-kXK-74" style="edgeStyle=orthogonalEdgeStyle;rounded=0;orthogonalLoop=1;jettySize=auto;html=1;exitX=0.5;exitY=1;exitDx=0;exitDy=0;entryX=0.5;entryY=0;entryDx=0;entryDy=0;" edge="1" parent="1" source="cduZeSpl5FfY2fh3-kXK-57" target="cduZeSpl5FfY2fh3-kXK-58">
          <mxGeometry relative="1" as="geometry" />
        </mxCell>
        <mxCell id="cduZeSpl5FfY2fh3-kXK-57" value="Send data to cloud storage" style="rounded=0;whiteSpace=wrap;html=1;" vertex="1" parent="1">
          <mxGeometry x="235.5" y="700" width="170" height="80" as="geometry" />
        </mxCell>
        <mxCell id="cduZeSpl5FfY2fh3-kXK-79" style="edgeStyle=orthogonalEdgeStyle;rounded=0;orthogonalLoop=1;jettySize=auto;html=1;exitX=0.5;exitY=1;exitDx=0;exitDy=0;entryX=0.5;entryY=0;entryDx=0;entryDy=0;" edge="1" parent="1" source="cduZeSpl5FfY2fh3-kXK-58" target="cduZeSpl5FfY2fh3-kXK-59">
          <mxGeometry relative="1" as="geometry" />
        </mxCell>
        <mxCell id="cduZeSpl5FfY2fh3-kXK-58" value="Update UI with readings&amp;nbsp;" style="rounded=0;whiteSpace=wrap;html=1;" vertex="1" parent="1">
          <mxGeometry x="240.5" y="820" width="160" height="100" as="geometry" />
        </mxCell>
        <mxCell id="cduZeSpl5FfY2fh3-kXK-80" style="edgeStyle=orthogonalEdgeStyle;rounded=0;orthogonalLoop=1;jettySize=auto;html=1;exitX=0.5;exitY=1;exitDx=0;exitDy=0;" edge="1" parent="1" source="cduZeSpl5FfY2fh3-kXK-59" target="cduZeSpl5FfY2fh3-kXK-60">
          <mxGeometry relative="1" as="geometry" />
        </mxCell>
        <mxCell id="cduZeSpl5FfY2fh3-kXK-59" value="Send data to ML system" style="rounded=0;whiteSpace=wrap;html=1;" vertex="1" parent="1">
          <mxGeometry x="240.5" y="980" width="160" height="100" as="geometry" />
        </mxCell>
        <mxCell id="cduZeSpl5FfY2fh3-kXK-81" style="edgeStyle=orthogonalEdgeStyle;rounded=0;orthogonalLoop=1;jettySize=auto;html=1;exitX=0.5;exitY=1;exitDx=0;exitDy=0;" edge="1" parent="1" source="cduZeSpl5FfY2fh3-kXK-60" target="cduZeSpl5FfY2fh3-kXK-64">
          <mxGeometry relative="1" as="geometry" />
        </mxCell>
        <mxCell id="cduZeSpl5FfY2fh3-kXK-60" value="Calculate prediction results based on data" style="rounded=0;whiteSpace=wrap;html=1;" vertex="1" parent="1">
          <mxGeometry x="240.5" y="1141" width="160" height="100" as="geometry" />
        </mxCell>
        <mxCell id="cduZeSpl5FfY2fh3-kXK-72" style="edgeStyle=orthogonalEdgeStyle;rounded=0;orthogonalLoop=1;jettySize=auto;html=1;exitX=0.5;exitY=1;exitDx=0;exitDy=0;entryX=0.5;entryY=0;entryDx=0;entryDy=0;" edge="1" parent="1" source="cduZeSpl5FfY2fh3-kXK-62" target="cduZeSpl5FfY2fh3-kXK-66">
          <mxGeometry relative="1" as="geometry" />
        </mxCell>
        <mxCell id="cduZeSpl5FfY2fh3-kXK-62" value="Send a control command to device/devices" style="rounded=0;whiteSpace=wrap;html=1;" vertex="1" parent="1">
          <mxGeometry x="560" y="480" width="160" height="80" as="geometry" />
        </mxCell>
        <mxCell id="cduZeSpl5FfY2fh3-kXK-82" style="edgeStyle=orthogonalEdgeStyle;rounded=0;orthogonalLoop=1;jettySize=auto;html=1;exitX=0.5;exitY=1;exitDx=0;exitDy=0;entryX=0.5;entryY=0;entryDx=0;entryDy=0;" edge="1" parent="1" source="cduZeSpl5FfY2fh3-kXK-64" target="cduZeSpl5FfY2fh3-kXK-65">
          <mxGeometry relative="1" as="geometry" />
        </mxCell>
        <mxCell id="cduZeSpl5FfY2fh3-kXK-64" value="Update Database with prediction report" style="rounded=0;whiteSpace=wrap;html=1;" vertex="1" parent="1">
          <mxGeometry x="249.75" y="1320" width="140.5" height="80" as="geometry" />
        </mxCell>
        <mxCell id="cduZeSpl5FfY2fh3-kXK-83" style="edgeStyle=orthogonalEdgeStyle;rounded=0;orthogonalLoop=1;jettySize=auto;html=1;exitX=0.5;exitY=1;exitDx=0;exitDy=0;" edge="1" parent="1" source="cduZeSpl5FfY2fh3-kXK-65" target="cduZeSpl5FfY2fh3-kXK-68">
          <mxGeometry relative="1" as="geometry" />
        </mxCell>
        <mxCell id="cduZeSpl5FfY2fh3-kXK-65" value="Update UI with prediction readings" style="rounded=0;whiteSpace=wrap;html=1;" vertex="1" parent="1">
          <mxGeometry x="239" y="1480" width="160.5" height="80" as="geometry" />
        </mxCell>
        <mxCell id="cduZeSpl5FfY2fh3-kXK-78" style="edgeStyle=orthogonalEdgeStyle;rounded=0;orthogonalLoop=1;jettySize=auto;html=1;exitX=0.5;exitY=1;exitDx=0;exitDy=0;entryX=1;entryY=0.5;entryDx=0;entryDy=0;" edge="1" parent="1" source="cduZeSpl5FfY2fh3-kXK-66" target="cduZeSpl5FfY2fh3-kXK-57">
          <mxGeometry relative="1" as="geometry" />
        </mxCell>
        <mxCell id="cduZeSpl5FfY2fh3-kXK-66" value="Update UI with device state" style="rounded=0;whiteSpace=wrap;html=1;" vertex="1" parent="1">
          <mxGeometry x="560" y="600" width="160" height="80" as="geometry" />
        </mxCell>
        <mxCell id="cduZeSpl5FfY2fh3-kXK-68" value="End" style="shape=mxgraph.flowchart.terminator;strokeWidth=2;gradientColor=none;gradientDirection=north;fontStyle=0;html=1;" vertex="1" parent="1">
          <mxGeometry x="259" y="1680" width="120" height="30" as="geometry" />
        </mxCell>
        <mxCell id="cduZeSpl5FfY2fh3-kXK-70" style="edgeStyle=orthogonalEdgeStyle;rounded=0;orthogonalLoop=1;jettySize=auto;html=1;exitX=0.5;exitY=1;exitDx=0;exitDy=0;entryX=0.5;entryY=0;entryDx=0;entryDy=0;entryPerimeter=0;" edge="1" parent="1" source="cduZeSpl5FfY2fh3-kXK-55" target="6">
          <mxGeometry relative="1" as="geometry" />
        </mxCell>
        <mxCell id="cduZeSpl5FfY2fh3-kXK-84" value="Obscurities" style="swimlane;fontStyle=0;childLayout=stackLayout;horizontal=1;startSize=30;horizontalStack=0;resizeParent=1;resizeParentMax=0;resizeLast=0;collapsible=1;marginBottom=0;whiteSpace=wrap;html=1;" vertex="1" parent="1">
          <mxGeometry x="800" y="240" width="310" height="120" as="geometry" />
        </mxCell>
        <mxCell id="cduZeSpl5FfY2fh3-kXK-85" value="&lt;strong&gt;- Temperature &amp;gt; 26Â°C&lt;/strong&gt;, turn on AC" style="text;strokeColor=none;fillColor=none;align=left;verticalAlign=middle;spacingLeft=4;spacingRight=4;overflow=hidden;points=[[0,0.5],[1,0.5]];portConstraint=eastwest;rotatable=0;whiteSpace=wrap;html=1;" vertex="1" parent="cduZeSpl5FfY2fh3-kXK-84">
          <mxGeometry y="30" width="310" height="30" as="geometry" />
        </mxCell>
        <mxCell id="cduZeSpl5FfY2fh3-kXK-86" value="&lt;strong&gt;- Lux &amp;lt; 100&lt;/strong&gt; and &lt;strong&gt;motion detected&lt;/strong&gt;, turn on lights" style="text;strokeColor=none;fillColor=none;align=left;verticalAlign=middle;spacingLeft=4;spacingRight=4;overflow=hidden;points=[[0,0.5],[1,0.5]];portConstraint=eastwest;rotatable=0;whiteSpace=wrap;html=1;" vertex="1" parent="cduZeSpl5FfY2fh3-kXK-84">
          <mxGeometry y="60" width="310" height="30" as="geometry" />
        </mxCell>
        <mxCell id="cduZeSpl5FfY2fh3-kXK-87" value="&lt;strong&gt;- No motion for 15 minutes&lt;/strong&gt;, turn off lights and set AC to low power mode" style="text;strokeColor=none;fillColor=none;align=left;verticalAlign=middle;spacingLeft=4;spacingRight=4;overflow=hidden;points=[[0,0.5],[1,0.5]];portConstraint=eastwest;rotatable=0;whiteSpace=wrap;html=1;" vertex="1" parent="cduZeSpl5FfY2fh3-kXK-84">
          <mxGeometry y="90" width="310" height="30" as="geometry" />
        </mxCell>
      </root>
    </mxGraphModel>
  </diagram>
</mxfile>
